<svg width="20" height="19" viewBox="0 0 20 19" fill="none" xmlns="http://www.w3.org/2000/svg">
<circle cx="9.81949" cy="3.27317" r="3.27317" fill="black"/>
<path fill-rule="evenodd" clip-rule="evenodd" d="M14.1837 12.0125C14.1837 12.0089 14.1837 12.0052 14.1837 12.0016C14.1837 9.59132 12.2298 7.63739 9.81953 7.63739C7.40924 7.63739 5.45531 9.59131 5.4553 12.0016H5.45529V18.5479H14.1837V12.0125Z" fill="black"/>
<path fill-rule="evenodd" clip-rule="evenodd" d="M14.1837 12.0125C14.1837 12.0089 14.1837 12.0052 14.1837 12.0016C14.1837 9.59132 12.2298 7.63739 9.81953 7.63739C7.40924 7.63739 5.45531 9.59131 5.4553 12.0016H5.45529V18.5479H14.1837V12.0125Z" fill="black"/>
<circle cx="3.27317" cy="6.8191" r="2.45487" fill="black"/>
<path fill-rule="evenodd" clip-rule="evenodd" d="M4.36422 18.2751V12.0016H4.36423C4.36423 11.4358 4.45037 10.8901 4.61025 10.3769C4.20201 10.194 3.74947 10.0923 3.27316 10.0923C1.46545 10.0923 5.41173e-06 11.5577 0 13.3654V13.3654V18.2751H4.36422Z" fill="black"/>
<circle r="2.45487" transform="matrix(-1 0 0 1 16.2399 6.8191)" fill="black"/>
<path fill-rule="evenodd" clip-rule="evenodd" d="M15.1489 18.2751V12.0016H15.1489C15.1489 11.4358 15.0627 10.8901 14.9028 10.3769C15.3111 10.194 15.7636 10.0923 16.2399 10.0923C18.0476 10.0923 19.5131 11.5577 19.5131 13.3654H19.5131V18.2751H15.1489Z" fill="black"/>
</svg>
